<svg width="96" height="20" viewBox="0 0 96 20" fill="none" xmlns="http://www.w3.org/2000/svg">
<path d="M0 14.0217H1.42982L3.54683 8.20273C3.59486 8.06972 3.63365 7.94226 3.66321 7.82033C3.69646 7.69841 3.72786 7.57834 3.75742 7.46011H3.80176C3.82762 7.57834 3.85718 7.69841 3.89043 7.82033C3.92368 7.94226 3.96432 8.06972 4.01235 8.20273L6.12936 14.0217H7.71989L4.61642 5.91391H3.08131L0 14.0217ZM1.56836 12.1375H6.06286L5.69709 11.018H1.93413L1.56836 12.1375Z" fill="white"/>
<path d="M8.71168 14.0217H13.91V12.8524H10.2135V5.95271H8.71168V14.0217Z" fill="white"/>
<path d="M15.19 14.0217H20.6543V12.8635H16.6752V10.4417H20.0724V9.30557H16.6752V7.12205H20.5933V5.95271H15.19V14.0217Z" fill="white"/>
<path d="M21.2526 14.0217H22.8099L25.1209 10.3419H25.3481L28.1357 5.95271H26.6061L24.4503 9.48291H24.2175L21.2526 14.0217ZM21.3745 5.95271L24.2342 10.3696H24.2674L26.5839 14.0217H28.3241L25.3204 9.47183H25.2871L23.0981 5.95825L21.3745 5.95271Z" fill="white"/>
<path d="M29.3436 13.2625C29.3436 13.5063 29.423 13.7132 29.5819 13.8832C29.7444 14.0531 29.9754 14.1381 30.2746 14.1381C30.5739 14.1381 30.803 14.0531 30.9618 13.8832C31.1207 13.7132 31.2001 13.5063 31.2001 13.2625C31.2001 13.0187 31.1207 12.8118 30.9618 12.6418C30.803 12.4682 30.5739 12.3813 30.2746 12.3813C29.9754 12.3813 29.7444 12.4682 29.5819 12.6418C29.423 12.8118 29.3436 13.0187 29.3436 13.2625Z" fill="white"/>
<path d="M35.6498 11.7717C35.6535 12.5439 35.9454 13.1387 36.5255 13.5562C37.1092 13.9737 37.8703 14.1825 38.8087 14.1825C39.7546 14.1825 40.5083 13.97 41.0698 13.5451C41.6314 13.1203 41.9122 12.5402 41.9122 11.805C41.9085 11.103 41.6887 10.5636 41.2527 10.1867C40.8205 9.80988 40.1665 9.50508 39.2909 9.27232C38.4633 9.05064 37.922 8.85667 37.6671 8.69042C37.4159 8.52046 37.2902 8.28586 37.2902 7.98659C37.2902 7.66516 37.4085 7.41208 37.6449 7.22735C37.8814 7.04262 38.2509 6.95025 38.7533 6.95025C39.2558 6.95025 39.6326 7.06294 39.8839 7.28831C40.1351 7.51368 40.2607 7.81295 40.2607 8.1861V8.30248H41.746V8.15839C41.7423 7.48228 41.4689 6.91885 40.9258 6.46811C40.3826 6.01736 39.6567 5.79199 38.7478 5.79199C37.8315 5.79199 37.1092 6.00259 36.5809 6.42377C36.0562 6.84496 35.7939 7.3973 35.7939 8.08081C35.7939 8.73475 36.0027 9.24461 36.4202 9.61037C36.8414 9.97245 37.4953 10.2717 38.382 10.5082C39.2096 10.7261 39.7546 10.9294 40.0169 11.1178C40.2829 11.3062 40.4159 11.5667 40.4159 11.8992C40.4159 12.2428 40.2773 12.518 40.0002 12.7249C39.7232 12.9318 39.3241 13.0353 38.8032 13.0353C38.2823 13.0353 37.8777 12.9281 37.5895 12.7139C37.3013 12.4996 37.1554 12.1763 37.1517 11.744V11.6165H35.6498V11.7717Z" fill="white"/>
<path d="M43.3695 14.0217H44.8714V10.4527H48.457V14.0217H49.9533V5.95271H48.457V9.27232H44.8714V5.95271H43.3695V14.0217Z" fill="white"/>
<path d="M51.8872 14.0217H57.3516V12.8635H53.3725V10.4417H56.7697V9.30557H53.3725V7.12205H57.2906V5.95271H51.8872V14.0217Z" fill="white"/>
<path d="M57.8335 5.95271L60.8538 14.0605H62.4056L65.4204 5.95271H63.9573L61.8957 11.611C61.8588 11.7182 61.8237 11.8327 61.7904 11.9546C61.7572 12.0765 61.7295 12.2003 61.7073 12.3259H61.6629C61.6371 12.2003 61.6075 12.0784 61.5743 11.9601C61.5447 11.8382 61.5096 11.7218 61.469 11.611L59.4462 5.95271H57.8335Z" fill="white"/>
<path d="M65.6972 7.12205H68.2133V14.0217H69.7151V7.12205H72.2312V5.95271H65.6972V7.12205Z" fill="white"/>
<path d="M72.9181 11.7717C72.9218 12.5439 73.2137 13.1387 73.7938 13.5562C74.3775 13.9737 75.1386 14.1825 76.077 14.1825C77.0229 14.1825 77.7766 13.97 78.3381 13.5451C78.8997 13.1203 79.1805 12.5402 79.1805 11.805C79.1768 11.103 78.957 10.5636 78.521 10.1867C78.0888 9.80988 77.4348 9.50508 76.5592 9.27232C75.7316 9.05064 75.1903 8.85667 74.9354 8.69042C74.6842 8.52046 74.5585 8.28586 74.5585 7.98659C74.5585 7.66516 74.6768 7.41208 74.9132 7.22735C75.1497 7.04262 75.5191 6.95025 76.0216 6.95025C76.5241 6.95025 76.9009 7.06294 77.1522 7.28831C77.4034 7.51368 77.529 7.81295 77.529 8.1861V8.30248H79.0143V8.15839C79.0106 7.48228 78.7372 6.91885 78.194 6.46811C77.6509 6.01736 76.9249 5.79199 76.0161 5.79199C75.0998 5.79199 74.3775 6.00259 73.8492 6.42377C73.3245 6.84496 73.0622 7.3973 73.0622 8.08081C73.0622 8.73475 73.271 9.24461 73.6885 9.61037C74.1097 9.97245 74.7636 10.2717 75.6503 10.5082C76.4779 10.7261 77.0229 10.9294 77.2852 11.1178C77.5512 11.3062 77.6842 11.5667 77.6842 11.8992C77.6842 12.2428 77.5456 12.518 77.2685 12.7249C76.9915 12.9318 76.5924 13.0353 76.0715 13.0353C75.5506 13.0353 75.146 12.9281 74.8578 12.7139C74.5696 12.4996 74.4237 12.1763 74.42 11.744V11.6165H72.9181V11.7717Z" fill="white"/>
<path d="M80.333 10.2144C80.333 11.5149 80.6692 12.5014 81.3416 13.1738C82.0178 13.8462 82.886 14.1825 83.9463 14.1825C85.003 14.1825 85.8694 13.8462 86.5455 13.1738C87.2253 12.5014 87.5652 11.5149 87.5652 10.2144V9.75446C87.5652 8.45766 87.2253 7.47304 86.5455 6.80062C85.8694 6.1282 85.003 5.79199 83.9463 5.79199C82.886 5.79199 82.0178 6.1282 81.3416 6.80062C80.6692 7.47304 80.333 8.45766 80.333 9.75446V10.2144ZM81.8737 10.3475V9.627C81.8737 8.7366 82.0602 8.06972 82.4334 7.62637C82.8102 7.18301 83.3146 6.96134 83.9463 6.96134C84.5781 6.96134 85.0824 7.18301 85.4593 7.62637C85.8398 8.06972 86.0301 8.7366 86.0301 9.627V10.353C86.0301 11.2397 85.8398 11.9066 85.4593 12.3536C85.0824 12.797 84.5781 13.0187 83.9463 13.0187C83.3183 13.0187 82.8158 12.797 82.4389 12.3536C82.0621 11.9066 81.8737 11.2379 81.8737 10.3475Z" fill="white"/>
<path d="M88.1912 5.95271L91.2116 14.0605H92.7633L95.7781 5.95271H94.3151L92.2535 11.611C92.2165 11.7182 92.1814 11.8327 92.1482 11.9546C92.1149 12.0765 92.0872 12.2003 92.065 12.3259H92.0207C91.9948 12.2003 91.9653 12.0784 91.932 11.9601C91.9025 11.8382 91.8674 11.7218 91.8267 11.611L89.8039 5.95271H88.1912Z" fill="white"/>
<path fill-rule="evenodd" clip-rule="evenodd" d="M96 19.6966H0.09375V19.1292H96V19.6966Z" fill="white"/>
<path fill-rule="evenodd" clip-rule="evenodd" d="M96 0.969348H0.09375V0.401855H96V0.969348Z" fill="white"/>
</svg>
